<svg width="12" height="12" viewBox="0 0 12 12" fill="none" xmlns="http://www.w3.org/2000/svg">
<g clip-path="url(#clip0_53_3288)">
<path d="M8.80078 6.42188C7.26288 6.42188 6.01172 7.67304 6.01172 9.21094C6.01172 10.7488 7.26288 12 8.80078 12C10.3516 12 11.6133 10.7488 11.6133 9.21094C11.6133 7.67304 10.3516 6.42188 8.80078 6.42188ZM9.65679 8.87351L8.71929 9.99851C8.65207 10.0792 8.55286 10.125 8.44924 10.125C8.43577 10.125 8.42224 10.1242 8.40867 10.1227C8.29083 10.109 8.18782 10.0368 8.13476 9.93066L7.75976 9.18066C7.67292 9.00701 7.74333 8.79581 7.91698 8.709C8.09062 8.62212 8.30182 8.69255 8.38866 8.86622L8.52326 9.13542L9.11663 8.42337C9.24094 8.27423 9.46263 8.2541 9.61177 8.37834C9.76095 8.50266 9.7811 8.72433 9.65679 8.87351Z" fill="#8F90A6"/>
<path d="M8.64926 2.0028L7.22281 0.527672C7.22213 0.526969 7.22142 0.526242 7.22074 0.525539C6.89231 0.191555 6.4353 0 5.96695 0H1.44141C0.859852 0 0.386719 0.473133 0.386719 1.05469V10.1719C0.386719 10.7534 0.859852 11.2266 1.44141 11.2266H5.95055C5.54641 10.6567 5.30859 9.96113 5.30859 9.21094C5.30859 7.28534 6.87518 5.71875 8.80078 5.71875C8.91942 5.71875 9.03668 5.7247 9.15234 5.73616V3.23391C9.15234 2.77057 8.97368 2.33344 8.64926 2.0028ZM4.11328 7.85156H2.23828C2.04412 7.85156 1.88672 7.69416 1.88672 7.5C1.88672 7.30584 2.04412 7.14844 2.23828 7.14844H4.11328C4.30744 7.14844 4.46484 7.30584 4.46484 7.5C4.46484 7.69416 4.30744 7.85156 4.11328 7.85156ZM4.11328 5.97656H2.23828C2.04412 5.97656 1.88672 5.81916 1.88672 5.625C1.88672 5.43084 2.04412 5.27344 2.23828 5.27344H4.11328C4.30744 5.27344 4.46484 5.43084 4.46484 5.625C4.46484 5.81916 4.30744 5.97656 4.11328 5.97656ZM4.11328 4.10156H2.23828C2.04412 4.10156 1.88672 3.94416 1.88672 3.75C1.88672 3.55584 2.04412 3.39844 2.23828 3.39844H4.11328C4.30744 3.39844 4.46484 3.55584 4.46484 3.75C4.46484 3.94416 4.30744 4.10156 4.11328 4.10156ZM6.36328 5.97656H5.98828C5.79413 5.97656 5.63672 5.81916 5.63672 5.625C5.63672 5.43084 5.79413 5.27344 5.98828 5.27344H6.36328C6.55744 5.27344 6.71484 5.43084 6.71484 5.625C6.71484 5.81916 6.55744 5.97656 6.36328 5.97656ZM6.36328 4.10156H5.98828C5.79413 4.10156 5.63672 3.94416 5.63672 3.75C5.63672 3.55584 5.79413 3.39844 5.98828 3.39844H6.36328C6.55744 3.39844 6.71484 3.55584 6.71484 3.75C6.71484 3.94416 6.55744 4.10156 6.36328 4.10156Z" fill="#8F90A6"/>
</g>
<defs>
<clipPath id="clip0_53_3288">
<rect width="12" height="12" fill="white"/>
</clipPath>
</defs>
</svg>
