<svg width="25" height="24" viewBox="0 0 25 24" fill="none" xmlns="http://www.w3.org/2000/svg">
<path d="M24.2956 10.7143H19.301L17.0688 12.9464H20.9822C21.1895 12.9478 21.3934 12.9978 21.5778 13.0924L24.2956 10.7143Z" fill="#8F90A6"/>
<path d="M12.9465 20.9822H14.7327V21.875H12.9465V20.9822Z" fill="#8F90A6"/>
<path d="M22.3213 14.2857V22.5027L24.866 19.958C24.9516 19.8756 25 19.7618 24.9999 19.6429V11.2844L22.1995 13.7348C22.2792 13.9076 22.3208 14.0954 22.3213 14.2857V14.2857Z" fill="#8F90A6"/>
<path d="M10.1339 23.533L10.142 23.5255C10.2229 23.4421 10.268 23.3305 10.2679 23.2143V14.2857C10.2679 14.0392 10.068 13.8393 9.82144 13.8393H0.446436C0.199902 13.8393 0 14.0391 0 14.2857V23.2143C0 23.4608 0.199853 23.6607 0.446436 23.6607H9.82144C9.93838 23.661 10.0507 23.6151 10.1339 23.533V23.533ZM4.46431 21.875C4.46431 22.3681 4.06455 22.7679 3.57144 22.7679H1.78569C1.29258 22.7679 0.892822 22.3681 0.892822 21.875V20.9821C0.892822 20.489 1.29258 20.0892 1.78569 20.0892H3.57139C4.0645 20.0892 4.46426 20.489 4.46426 20.9821V21.875H4.46431ZM8.92856 22.7679H7.58926C7.34272 22.7679 7.14282 22.568 7.14282 22.3214C7.14282 22.0749 7.34268 21.875 7.58926 21.875H8.92856C9.1751 21.875 9.375 22.0748 9.375 22.3214C9.375 22.568 9.17515 22.7679 8.92856 22.7679ZM8.92856 20.9822H7.58926C7.34272 20.9822 7.14282 20.7823 7.14282 20.5357C7.14282 20.2892 7.34268 20.0893 7.58926 20.0893H8.92856C9.1751 20.0893 9.375 20.2891 9.375 20.5357C9.375 20.7823 9.17515 20.9822 8.92856 20.9822Z" fill="#8F90A6"/>
<path d="M1.78564 20.9822H3.57183V21.875H1.78564V20.9822Z" fill="#8F90A6"/>
<path d="M21.2896 23.5353L21.2946 23.5268L21.3031 23.5187C21.3822 23.4369 21.427 23.328 21.4285 23.2143V14.2857C21.4285 14.0392 21.2287 13.8393 20.9821 13.8393H11.6071C11.3605 13.8393 11.1606 14.0391 11.1606 14.2857V23.2143C11.1606 23.4608 11.3605 23.6607 11.6071 23.6607H20.9821C21.0969 23.66 21.2071 23.6151 21.2896 23.5353V23.5353ZM15.6249 21.875C15.6249 22.3681 15.2251 22.7679 14.732 22.7679H12.9463C12.4532 22.7679 12.0535 22.3681 12.0535 21.875V20.9821C12.0535 20.489 12.4532 20.0892 12.9463 20.0892H14.732C15.2251 20.0892 15.6249 20.489 15.6249 20.9821V21.875ZM20.0892 22.7679H18.7499C18.5034 22.7679 18.3035 22.568 18.3035 22.3214C18.3035 22.0749 18.5033 21.875 18.7499 21.875H20.0892C20.3357 21.875 20.5356 22.0748 20.5356 22.3214C20.5356 22.568 20.3357 22.7679 20.0892 22.7679ZM20.0892 20.9822H18.7499C18.5034 20.9822 18.3035 20.7823 18.3035 20.5357C18.3035 20.2892 18.5033 20.0893 18.7499 20.0893H20.0892C20.3357 20.0893 20.5356 20.2891 20.5356 20.5357C20.5356 20.7823 20.3357 20.9822 20.0892 20.9822Z" fill="#8F90A6"/>
<path d="M16.2206 2.37812L18.9385 0H15.3318L12.4622 2.23213H15.625C15.8323 2.2335 16.0362 2.28354 16.2206 2.37812V2.37812Z" fill="#8F90A6"/>
<path d="M10.4045 0.128568C10.3853 0.148343 10.3642 0.166263 10.3416 0.182132L7.42285 2.23213H11.0077L13.8773 3.09744e-06H10.7144C10.598 -0.000436356 10.4864 0.0459016 10.4045 0.128568V0.128568Z" fill="#8F90A6"/>
<path d="M19.509 9.24108C19.594 9.15924 19.6423 9.04655 19.643 8.92858V0.570129L16.8425 3.02057C16.9223 3.19327 16.9639 3.38121 16.9644 3.57145V11.7898L19.509 9.24108Z" fill="#8F90A6"/>
<path d="M4.60083 10.8429C4.58154 10.8626 4.5605 10.8806 4.53789 10.8964L1.61914 12.9464H4.99282C4.93994 12.8035 4.91216 12.6524 4.91069 12.5V10.7143C4.79434 10.7139 4.68267 10.7601 4.60083 10.8429V10.8429Z" fill="#8F90A6"/>
<path d="M7.58936 10.2679H9.37554V11.1608H7.58936V10.2679Z" fill="#8F90A6"/>
<path d="M6.2499 12.9464H15.6249C15.7417 12.9468 15.8541 12.9011 15.9374 12.8192L15.9463 12.8103C16.0269 12.7271 16.0717 12.6158 16.0713 12.5V3.57144C16.0713 3.3249 15.8715 3.125 15.6249 3.125H6.2499C6.00337 3.125 5.80347 3.32485 5.80347 3.57144V12.5C5.80347 12.7466 6.00337 12.9464 6.2499 12.9464V12.9464ZM13.3928 9.375H14.7321C14.9786 9.375 15.1785 9.57485 15.1785 9.82144C15.1785 10.068 14.9787 10.2679 14.7321 10.2679H13.3928C13.1462 10.2679 12.9463 10.068 12.9463 9.82144C12.9463 9.5749 13.1462 9.375 13.3928 9.375V9.375ZM13.3928 11.1607H14.7321C14.9786 11.1607 15.1785 11.3606 15.1785 11.6072C15.1785 11.8538 14.9787 12.0536 14.7321 12.0536H13.3928C13.1462 12.0536 12.9463 11.8538 12.9463 11.6072C12.9463 11.3606 13.1462 11.1607 13.3928 11.1607V11.1607ZM6.69634 10.2679C6.69634 9.77476 7.09609 9.375 7.58921 9.375H9.3749C9.86802 9.375 10.2678 9.77476 10.2678 10.2679V11.1607C10.2678 11.6539 9.86802 12.0536 9.3749 12.0536H7.58921C7.09609 12.0536 6.69634 11.6539 6.69634 11.1607V10.2679Z" fill="#8F90A6"/>
</svg>
