<svg width="36" height="36" viewBox="0 0 36 36" fill="none" xmlns="http://www.w3.org/2000/svg">
<path fill-rule="evenodd" clip-rule="evenodd" d="M25.4738 10.2069C25.751 9.8991 25.7262 9.42488 25.4183 9.14771C25.1105 8.87055 24.6363 8.8954 24.3591 9.20322L17.7095 16.5884L10.3243 9.93876C10.0165 9.66159 9.54229 9.68645 9.26513 9.99427C8.98797 10.3021 9.01282 10.7763 9.32064 11.0535L16.7058 17.7031L10.0562 25.0882C9.77905 25.396 9.80391 25.8703 10.1117 26.1474C10.4195 26.4246 10.8938 26.3997 11.1709 26.0919L17.8205 18.7068L25.2056 25.3564C25.5135 25.6335 25.9877 25.6087 26.2648 25.3009C26.542 24.9931 26.5172 24.5188 26.2093 24.2417L18.8242 17.5921L25.4738 10.2069Z" fill="white"/>
</svg>
