<svg width="13" height="10" viewBox="0 0 13 10" fill="none" xmlns="http://www.w3.org/2000/svg">
<path fill-rule="evenodd" clip-rule="evenodd" d="M0.302246 1C0.302246 0.447715 0.749961 0 1.30225 0H11.3022C11.8545 0 12.3022 0.447715 12.3022 1C12.3022 1.55228 11.8545 2 11.3022 2H1.30225C0.749961 2 0.302246 1.55228 0.302246 1ZM2.30225 5C2.30225 4.44772 2.74996 4 3.30225 4H9.30225C9.85453 4 10.3022 4.44772 10.3022 5C10.3022 5.55228 9.85453 6 9.30225 6H3.30225C2.74996 6 2.30225 5.55228 2.30225 5ZM5.30225 8C4.74996 8 4.30225 8.44771 4.30225 9C4.30225 9.55229 4.74996 10 5.30225 10H7.30225C7.85453 10 8.30225 9.55229 8.30225 9C8.30225 8.44771 7.85453 8 7.30225 8H5.30225Z" fill="#5F30E2"/>
</svg>
