<svg width="60" height="40" viewBox="0 0 60 40" fill="none" xmlns="http://www.w3.org/2000/svg">
<path d="M34.1332 9.35107C35.1611 8.37959 35.8035 7.00333 35.8035 5.50564C35.8035 2.46977 33.2339 0.0410767 30.0219 0.0410767C28.0091 0.0410767 26.2104 1.01254 25.1825 2.51024C24.9256 2.75311 1.92783 29.5497 1.7137 29.8735C0.685863 30.845 0.043457 32.2213 0.043457 33.719C0.043457 36.7548 2.61304 39.1835 5.82502 39.1835C7.83785 39.1835 9.63655 38.2121 10.6644 36.7144C10.8785 36.431 33.8763 9.63442 34.1332 9.35107Z" fill="#5F30E2"/>
<path d="M47.4086 22.0605C48.4365 21.0891 49.0789 19.7128 49.0789 18.2151C49.0789 15.1792 46.5093 12.7505 43.2973 12.7505C41.2845 12.7505 39.4858 13.722 38.4579 15.2197C38.201 15.4626 26.0811 29.549 25.867 29.8728C24.8392 30.8443 24.1968 32.2206 24.1968 33.7183C24.1968 36.7541 26.7664 39.1828 29.9783 39.1828C31.9912 39.1828 33.7899 38.2114 34.8177 36.7137C35.1175 36.4303 47.1945 22.3439 47.4086 22.0605Z" fill="#5F30E2"/>
<path d="M59.9999 5.46456C59.9999 8.50043 57.4303 10.9291 54.2183 10.9291C51.0063 10.9291 48.4368 8.50043 48.4368 5.46456C48.4368 2.42869 51.0063 0 54.2183 0C57.4303 0.0404782 59.9999 2.46917 59.9999 5.46456Z" fill="#5F30E2"/>
<path d="M11.5631 5.46456C11.5631 8.50043 8.99353 10.9291 5.78156 10.9291C2.56958 10.9291 0 8.50043 0 5.46456C0 2.42869 2.56958 0 5.78156 0C8.99353 0.0404782 11.5631 2.46917 11.5631 5.46456Z" fill="#5F30E2"/>
</svg>
