<svg width="37" height="37" viewBox="0 0 37 37" fill="none" xmlns="http://www.w3.org/2000/svg">
    <g clip-path="url(#clip0_105_493)">
        <path
            d="M26.6453 14.9793L10.4139 15.0169C10.1284 15.0169 9.89509 15.2501 9.89509 15.5372L9.89509 18.4412C9.89509 18.7283 10.1284 18.9616 10.4154 18.9616L11.367 18.9623L11.367 23.5414C11.367 26.5014 13.6345 28.916 16.5186 29.2082L16.5186 33.8976C16.5186 34.1846 16.7519 34.4179 17.039 34.4179L19.9828 34.4179C20.127 34.4179 20.2565 34.3591 20.3508 34.2649C20.445 34.1706 20.5031 34.0404 20.5038 33.8969L20.5038 29.2074C21.8506 29.0705 23.0701 28.4943 23.9775 27.5869C25.0137 26.5506 25.6562 25.1192 25.6562 23.5414L25.6562 18.9623L26.607 18.9623C26.8911 18.9623 27.1237 18.7327 27.1274 18.4493L27.1663 15.5063C27.1678 15.3665 27.1134 15.2325 27.0162 15.1339C26.9191 15.0353 26.7836 14.9793 26.6453 14.9793Z"
            fill="#5f30e2" />
        <path
            d="M14.0913 5.9934C12.9955 5.99268 12.1028 6.88537 12.1035 7.98119L12.1035 13.9718L16.088 13.963L16.0872 7.98195C16.0872 7.45062 15.8811 6.95161 15.5051 6.57555C15.129 6.19949 14.63 5.9934 14.0913 5.9934Z"
            fill="#5f30e2" />
        <path
            d="M22.9221 5.99407C21.8263 5.99335 20.9336 6.88604 20.9343 7.98186L20.9343 13.9519L24.9195 13.9423L24.9195 7.98255C24.9195 7.45122 24.7134 6.95221 24.3373 6.57615C23.9613 6.20009 23.4616 5.99332 22.9221 5.99407Z"
            fill="#5f30e2" />
    </g>
    <defs>
        <clipPath id="clip0_105_493">
            <rect width="25" height="25" fill="#5f30e2" transform="translate(0.833252 18.4277) rotate(-45)" />
        </clipPath>
    </defs>
</svg>