<svg width="12" height="12" viewBox="0 0 12 12" fill="none" xmlns="http://www.w3.org/2000/svg">
<path fill-rule="evenodd" clip-rule="evenodd" d="M11.168 6.78788C11.5822 6.78788 11.918 6.45209 11.918 6.03788C11.918 5.62367 11.5822 5.28788 11.168 5.28788L6.78793 5.28788L6.78793 0.907776C6.78793 0.493562 6.45214 0.157776 6.03793 0.157776C5.62371 0.157776 5.28793 0.493562 5.28793 0.907776L5.28793 5.28788L0.907855 5.28788C0.493641 5.28788 0.157855 5.62367 0.157855 6.03788C0.157855 6.45209 0.493641 6.78788 0.907855 6.78788L5.28793 6.78788L5.28793 11.168C5.28793 11.5822 5.62371 11.918 6.03793 11.918C6.45214 11.918 6.78793 11.5822 6.78793 11.168L6.78793 6.78788L11.168 6.78788Z" fill="white"/>
</svg>
