<svg width="12" height="12" viewBox="0 0 12 12" fill="none" xmlns="http://www.w3.org/2000/svg">
<path fill-rule="evenodd" clip-rule="evenodd" d="M11.168 6.78782C11.5822 6.78782 11.918 6.45203 11.918 6.03782C11.918 5.6236 11.5822 5.28782 11.168 5.28782L6.78786 5.28782L6.78787 0.907715C6.78787 0.493501 6.45208 0.157715 6.03787 0.157715C5.62365 0.157715 5.28787 0.493501 5.28787 0.907715L5.28786 5.28782L0.907794 5.28782C0.49358 5.28782 0.157794 5.6236 0.157794 6.03782C0.157794 6.45203 0.49358 6.78782 0.907794 6.78782L5.28786 6.78782L5.28786 11.1679C5.28786 11.5821 5.62365 11.9179 6.03786 11.9179C6.45208 11.9179 6.78786 11.5821 6.78786 11.1679L6.78786 6.78782L11.168 6.78782Z" fill="#5F30E2"/>
</svg>
